<svg xmlns="http://www.w3.org/2000/svg" class="MuiBox-root css-1l81hlt" viewBox="0 0 606 92"><svg><path d="M149.277 4.28289C150.899 2.80675 152.791 1.74642 154.974 1.03954H154.953C157.136 0.353442 159.506 0 162.084 0C163.747 0 165.473 0.0831623 167.282 0.291069C169.091 0.478186 170.962 0.87321 172.875 1.47614L171.003 11.622C168.883 11.1022 166.866 10.832 164.953 10.832C163.186 10.832 161.564 11.3517 160.109 12.3705C158.654 13.41 157.926 15.2604 157.926 17.9008V19.8967H169.901V30.7495H157.926V71.8319H144.059V30.7495H135.95V19.8967H144.059V18.2127C144.059 15.0317 144.516 12.2873 145.452 9.95875C146.387 7.63019 147.655 5.73823 149.277 4.28289ZM50.2094 20.3751C47.569 21.768 45.0533 24.055 42.6831 27.236C41.706 24.3253 40.0011 22.1007 37.631 20.5622C35.2609 19.0444 32.1838 18.2752 28.4207 18.2752C25.5932 18.2752 22.8696 18.9613 20.2916 20.3543C17.7135 21.7472 15.4681 23.9095 13.5554 26.8202V19.8553H0.082983V71.7905H13.9504V40.5628C13.9504 39.0451 14.2207 37.6313 14.8028 36.3423C15.3642 35.0533 16.1126 33.9306 17.0274 33.0158C18.1501 31.8931 19.2936 31.1031 20.4371 30.6249C21.5806 30.1675 22.8696 29.918 24.2418 29.918C25.0942 29.918 25.9258 30.0427 26.7159 30.313C27.5059 30.5833 28.192 31.0407 28.7534 31.706C29.3147 32.3713 29.7513 33.2861 30.084 34.4296C30.4166 35.5939 30.583 37.1116 30.583 38.9619V71.7905H44.4504V39.9599C44.4504 38.6293 44.7414 37.3819 45.282 36.176C45.8433 34.9909 46.5918 33.9306 47.5066 32.995C48.6293 31.8723 49.7728 31.0823 50.9163 30.6041C52.0598 30.1467 53.3488 29.8972 54.721 29.8972C55.5734 29.8972 56.405 30.0219 57.1951 30.2922C57.9851 30.5625 58.6712 31.0199 59.2118 31.6852C59.7731 32.3505 60.2305 33.2653 60.5424 34.4088C60.875 35.5731 61.0413 37.0908 61.0413 38.9412V71.7697H74.9087V37.0492C74.9087 30.417 73.5781 25.6351 70.8961 22.6828C68.2141 19.7305 64.2015 18.2544 58.8583 18.2544C55.6981 18.2544 52.7874 18.9405 50.147 20.3335L50.2094 20.3751ZM118.237 19.8762L118.216 19.9386H118.216L118.237 19.8762ZM118.216 19.9386L106.947 53.9938L94.8678 19.8762H78.8382L100.315 69.5245L98.7349 73.9113C97.9449 76.1567 96.9885 77.7368 95.8658 78.6308C94.7431 79.5248 93.2462 79.9822 91.3958 79.9822C89.4207 79.9822 87.4664 79.7119 85.5536 79.1921L83.2666 89.5459C85.117 90.1488 86.8842 90.5647 88.5683 90.7933C90.2523 91.022 91.9572 91.1468 93.662 91.1468C96.4272 91.1468 98.7557 90.7726 100.648 90.0449C102.519 89.3172 104.141 88.1945 105.492 86.7184C106.843 85.2214 108.049 83.3711 109.109 81.1465C110.17 78.9219 111.293 76.323 112.478 73.3499L133.372 19.9386H118.216ZM178.135 13.3262H192.397V0.789397H178.135V13.3262ZM178.343 71.8114H192.21V19.8762H178.343V71.8114ZM206.16 19.8768V6.05099L206.14 6.00941H220.007V19.8352H231.899V30.6672H220.007V54.6389C220.007 57.3625 220.568 59.2128 221.691 60.1692C222.835 61.1464 224.269 61.6246 226.057 61.6246C226.993 61.6246 227.928 61.583 228.885 61.479C229.841 61.3958 230.797 61.2087 231.712 60.9385L233.687 71.1883C231.775 71.7912 229.903 72.207 228.095 72.4357C226.265 72.6644 224.539 72.7892 222.897 72.7892C217.221 72.7892 213.021 71.4378 210.277 68.7142C207.533 65.9906 206.16 61.4166 206.16 54.9923V30.7088H198.052V19.8768H206.16ZM259.697 20.3751C256.89 21.768 254.457 23.9926 252.42 27.0489V19.8969H238.947V71.8321H252.815V40.6044C252.815 39.0867 253.127 37.6729 253.75 36.3839C254.374 35.0949 255.143 33.9722 256.079 33.0574C257.202 32.0594 258.408 31.311 259.697 30.7704C260.986 30.2506 262.524 29.9804 264.312 29.9804C266.62 29.9804 268.47 30.6457 269.863 31.9763C271.256 33.3069 271.942 35.8018 271.942 39.4401V71.8736H285.81V37.5482C285.81 30.9159 284.396 26.0509 281.548 22.9739C278.699 19.8969 274.354 18.3584 268.47 18.3584C265.435 18.3584 262.503 19.0445 259.697 20.4374V20.3751ZM311.382 32.0801C310.426 33.0988 309.677 34.3047 309.158 35.6561V35.6769C308.638 37.0283 308.326 38.5044 308.264 40.1053H330.551C330.551 36.5293 329.678 33.7433 327.932 31.7474C326.185 29.7515 323.462 28.7535 319.761 28.7535C317.91 28.7535 316.289 29.0446 314.896 29.6476C313.503 30.2297 312.339 31.0613 311.382 32.0801ZM301.382 25.5518C303.669 23.1608 306.372 21.3521 309.553 20.1254H309.511C312.671 18.8988 316.185 18.2958 320.01 18.2958C327.932 18.2958 333.899 20.5828 337.89 25.1568C341.882 29.7307 343.878 35.9056 343.878 43.6605V49.2324H308.035C308.16 53.4113 309.22 56.6755 311.195 59.0248C313.191 61.395 316.143 62.5592 320.114 62.5592C325.603 62.5592 328.826 60.2307 329.824 55.5944H343.296C342.36 61.4365 340.032 65.865 336.31 68.8796C332.589 71.8943 327.162 73.412 320.031 73.412C311.445 73.412 304.999 71.0211 300.675 66.2392C296.351 61.4573 294.188 54.7004 294.188 45.9475C294.188 41.5814 294.833 37.6728 296.08 34.2631C297.348 30.8326 299.116 27.9427 301.382 25.5518ZM363.858 19.4392C361.114 20.2085 358.764 21.2688 356.789 22.6618C354.814 24.0548 353.276 25.7388 352.174 27.7347C351.072 29.7306 350.531 31.976 350.531 34.4917C350.531 39.3983 352.07 43.0575 355.126 45.49C358.203 47.9017 362.86 49.6273 369.139 50.6045L376.27 51.8104C378.786 52.2054 380.47 52.9123 381.364 53.8894C382.258 54.8874 382.694 56.0517 382.694 57.3823C382.694 59.2326 381.988 60.584 380.574 61.4157C379.139 62.2473 376.79 62.6631 373.484 62.6631C370.719 62.6631 368.349 62.2057 366.353 61.2701C364.378 60.3346 363.151 58.3594 362.694 55.3032H349.429C349.637 58.8168 350.427 61.7483 351.862 64.0561C353.276 66.3847 355.084 68.235 357.309 69.628C359.513 71.021 362.029 71.9981 364.835 72.5595C367.642 73.1208 370.594 73.4119 373.692 73.4119C381.426 73.4119 387.123 71.9358 390.824 68.9835C394.524 66.0312 396.354 62.1018 396.354 57.1952C396.354 54.7419 396.084 52.5796 395.502 50.7292C394.94 48.8581 393.963 47.2572 392.528 45.9058C391.115 44.5544 389.223 43.3901 386.832 42.4753C384.462 41.5398 381.447 40.7913 377.809 40.1884L371.28 39.0864C368.307 38.5667 366.311 37.9014 365.293 37.1529C364.274 36.3837 363.754 35.1778 363.754 33.5145C363.754 32.9948 363.9 32.4126 364.191 31.8305C364.482 31.2276 364.981 30.7078 365.667 30.2296C366.353 29.7722 367.309 29.3772 368.536 29.0861C369.763 28.795 371.28 28.6495 373.131 28.6495C376.436 28.6495 378.827 29.2109 380.304 30.3336C381.8 31.4563 382.84 33.2235 383.422 35.6144L395.793 34.0343C395.398 31.8513 394.753 29.793 393.859 27.8595C392.965 25.9467 391.655 24.2835 389.909 22.8905C388.162 21.4975 385.896 20.3956 383.131 19.564C380.366 18.7323 376.935 18.3165 372.84 18.3165C369.534 18.3165 366.519 18.6908 363.775 19.46L363.858 19.4392ZM408.371 22.6618C410.346 21.2688 412.695 20.2085 415.44 19.4392V19.46C418.184 18.6908 421.199 18.3165 424.504 18.3165C428.6 18.3165 432.031 18.7323 434.796 19.564C437.561 20.3956 439.827 21.4975 441.574 22.8905C443.32 24.2835 444.651 25.9467 445.545 27.8595C446.439 29.793 447.083 31.8513 447.478 34.0343L435.108 35.6144C434.526 33.2235 433.465 31.4563 431.989 30.3336C430.513 29.2109 428.122 28.6495 424.816 28.6495C422.966 28.6495 421.427 28.795 420.201 29.0861C418.974 29.3772 418.018 29.7722 417.332 30.2296C416.646 30.7078 416.147 31.2276 415.856 31.8305C415.544 32.4126 415.398 32.9948 415.398 33.5145C415.398 35.1778 415.918 36.3837 416.937 37.1529C417.955 37.9014 419.951 38.5667 422.924 39.0864L429.453 40.1884C433.091 40.7913 436.106 41.5398 438.476 42.4753C440.867 43.3901 442.759 44.5544 444.172 45.9058C445.586 47.2572 446.584 48.8581 447.146 50.7292C447.707 52.5796 447.977 54.7419 447.977 57.1952C447.977 62.1018 446.148 66.0312 442.447 68.9835C438.746 71.9358 433.029 73.4119 425.315 73.4119C422.218 73.4119 419.265 73.1208 416.458 72.5595C413.652 71.9981 411.136 71.021 408.932 69.628C406.708 68.235 404.899 66.3847 403.485 64.0561C402.051 61.7483 401.26 58.8168 401.053 55.3032H414.317C414.774 58.3594 416.001 60.3346 417.976 61.2701C419.972 62.2057 422.342 62.6631 425.107 62.6631C428.413 62.6631 430.783 62.2473 432.197 61.4157C433.611 60.584 434.318 59.2326 434.318 57.3823C434.318 56.0517 433.881 54.8874 432.987 53.8894C432.093 52.9123 430.388 52.2054 427.873 51.8104L420.741 50.6045C414.463 49.6273 409.805 47.9017 406.728 45.49C403.672 43.0575 402.134 39.3983 402.134 34.4917C402.134 31.976 402.674 29.7306 403.776 27.7347C404.857 25.7388 406.396 24.0548 408.371 22.6618ZM477.23 61.6034C475.878 61.2499 474.548 60.4599 473.217 59.2748C471.97 58.0066 471.055 56.3641 470.494 54.3474C469.932 52.3307 469.662 49.6279 469.662 46.239V44.6381C469.662 41.6443 469.974 39.2118 470.597 37.2782C471.221 35.3655 472.198 33.7646 473.529 32.4964C474.714 31.4984 475.941 30.7707 477.188 30.3133C478.436 29.8559 479.933 29.6065 481.637 29.6065C483.155 29.6065 484.59 29.8975 485.941 30.4589C487.292 31.0202 488.457 31.9558 489.455 33.2448C490.453 34.5339 491.222 36.2179 491.783 38.2762C492.345 40.3345 492.636 42.8917 492.636 45.9272C492.636 48.9626 492.345 51.3327 491.742 53.391C491.139 55.4493 490.349 57.1334 489.33 58.4224C488.311 59.7114 487.105 60.6678 485.712 61.2499C484.319 61.8528 482.864 62.1439 481.367 62.1439C479.974 62.1439 478.602 61.9568 477.25 61.6034H477.23ZM469.371 26.7373V19.8764H455.898V91.1054H469.766V66.4268C472.011 69.2128 474.402 71.0631 476.939 71.9987C479.475 72.9343 482.032 73.3917 484.61 73.3917C488.103 73.3917 491.243 72.7264 494.008 71.3958C496.773 70.0652 499.143 68.194 501.077 65.7823C503.031 63.3706 504.507 60.4599 505.547 57.071C506.565 53.6821 507.085 49.9398 507.085 45.8232C507.085 37.2782 505.297 30.542 501.742 25.6354C498.166 20.7288 492.802 18.2755 485.608 18.2755C478.415 18.2755 473.321 21.1031 469.371 26.7373ZM526.691 57.0918C526.691 58.8174 527.294 60.1688 528.479 61.1668L528.5 61.1875C529.685 62.1855 531.348 62.6845 533.448 62.6845C537.003 62.6845 539.914 61.8528 542.159 60.1896C543.427 59.254 544.446 58.0897 545.236 56.6552C546.026 55.2206 546.421 53.4534 546.421 51.3327V48.6507L540.267 48.9418C537.357 49.0666 535.028 49.3784 533.24 49.8358C531.452 50.314 530.08 50.8754 529.123 51.5822C528.167 52.2683 527.522 53.0792 527.19 54.0147C526.857 54.9295 526.691 55.9691 526.691 57.0918ZM515.609 33.723C516.524 28.2758 518.915 24.3464 522.741 21.9347L522.782 21.9139C526.608 19.4814 531.764 18.2755 538.23 18.2755C542.201 18.2755 545.569 18.7537 548.334 19.7101C551.099 20.6872 553.324 22.0594 555.008 23.8474C556.692 25.6562 557.898 27.8185 558.667 30.3757C559.436 32.933 559.81 35.8021 559.81 38.9831V71.8116H546.733V65.2417C544.696 67.5703 542.388 69.4622 539.851 70.9176C537.315 72.3729 534.03 73.1006 529.997 73.1006C527.668 73.1006 525.485 72.8096 523.406 72.2066C521.327 71.6037 519.518 70.6889 517.959 69.4207C516.4 68.1524 515.152 66.5515 514.237 64.5972C513.302 62.6429 512.844 60.3143 512.844 57.5907C512.844 54.0147 513.634 51.104 515.214 48.8379C516.795 46.5717 518.874 44.8253 521.452 43.557C524.03 42.3096 526.92 41.4156 530.121 40.875C533.323 40.3345 536.566 40.0018 539.872 39.8771L546.504 39.586V37.0079C546.504 33.827 545.631 31.6232 543.885 30.4381C542.118 29.253 540.059 28.6501 537.689 28.6501C532.221 28.6501 529.082 30.7292 528.292 34.9081L515.609 33.723ZM570.06 71.8105H583.928V0.789397H570.06V71.8105ZM605.024 10.2082C605.398 9.33503 605.585 8.37866 605.585 7.35991V7.27675C605.585 6.258 605.398 5.30163 605.024 4.42842C604.649 3.55521 604.13 2.78596 603.464 2.12065C602.799 1.45535 602.03 0.935582 601.157 0.561349C600.283 0.187116 599.327 0 598.308 0H598.225C597.206 0 596.271 0.187116 595.377 0.561349C594.483 0.935582 593.714 1.45535 593.048 2.12065C592.383 2.78596 591.863 3.55521 591.489 4.42842C591.115 5.30163 590.928 6.258 590.928 7.27675V7.35991C590.928 8.37866 591.115 9.31424 591.489 10.2082C591.863 11.1022 592.383 11.8715 593.048 12.5368C593.714 13.2021 594.504 13.7219 595.377 14.0961C596.25 14.4703 597.206 14.6575 598.225 14.6575H598.308C599.327 14.6575 600.283 14.4703 601.157 14.0961C602.03 13.7219 602.799 13.2021 603.464 12.5368C604.13 11.8715 604.649 11.0814 605.024 10.2082ZM601.177 2.39093C602.03 2.88991 602.695 3.55521 603.194 4.40763C603.693 5.26005 603.943 6.19563 603.943 7.25596V7.33912C603.943 8.39945 603.693 9.35582 603.194 10.2082C602.695 11.0607 602.03 11.7468 601.177 12.2457C600.325 12.7447 599.389 12.9942 598.329 12.9942H598.246C597.186 12.9942 596.229 12.7447 595.377 12.2457C594.524 11.7468 593.838 11.0814 593.339 10.2082C592.84 9.33503 592.591 8.39945 592.591 7.33912V7.25596C592.591 6.21642 592.84 5.26005 593.339 4.40763C593.838 3.55521 594.504 2.88991 595.377 2.39093C596.25 1.89195 597.186 1.64247 598.246 1.64247H598.329C599.369 1.64247 600.325 1.89195 601.177 2.39093ZM598.62 3.59679H595.356H595.335V11.0191H597.082V8.48261H598.308L599.722 11.0191H601.697L600.075 8.19154C600.512 8.02522 600.845 7.73414 601.094 7.35991C601.344 6.98568 601.468 6.54907 601.468 6.07089C601.468 5.28084 601.219 4.67791 600.72 4.2413C600.221 3.8047 599.514 3.59679 598.62 3.59679ZM599.348 6.81935C599.119 7.00647 598.828 7.08963 598.433 7.08963L598.412 7.11042H597.082V5.09372H598.391C598.786 5.09372 599.098 5.19768 599.327 5.364C599.556 5.53033 599.68 5.80061 599.68 6.09168C599.68 6.38275 599.577 6.63224 599.348 6.81935Z" fill="currentColor"/></svg></svg>